<svg width="265" height="46" viewBox="0 0 265 46" fill="none" xmlns="http://www.w3.org/2000/svg">
<path d="M0.800019 43.5723C0.266686 43.5723 1.90735e-05 43.3056 1.90735e-05 42.7723V36.3723C1.90735e-05 35.8389 0.266686 35.5723 0.800019 35.5723H14.24V25.9723H3.45602C2.92269 25.9723 2.65602 25.7056 2.65602 25.1723V18.7723C2.65602 18.2389 2.92269 17.9723 3.45602 17.9723H14.24V9.42826H0.800019C0.266686 9.42826 1.90735e-05 9.1616 1.90735e-05 8.62827V1.71626C1.90735e-05 1.18293 0.266686 0.916264 0.800019 0.916264H16.704C17.1947 0.916264 17.6214 1.08693 17.984 1.42826L24.384 7.82826C24.7254 8.19093 24.896 8.6176 24.896 9.10826V15.5083C24.896 15.9563 24.7894 16.2763 24.576 16.4683L20.416 21.2363V23.2523L24.576 27.9883C24.7894 28.2016 24.896 28.5216 24.896 28.9483V35.3483C24.896 35.8603 24.7254 36.2869 24.384 36.6283L17.984 43.0283C17.6214 43.3909 17.1947 43.5723 16.704 43.5723H0.800019ZM44.0185 43.5723C43.5279 43.5723 43.1012 43.4336 42.7385 43.1563L37.5225 38.3883L32.2425 31.5083C32.0079 31.2096 31.8585 31.0283 31.7945 30.9643C31.7305 30.8789 31.6985 30.6869 31.6985 30.3883V14.0683C31.6985 13.7696 31.7305 13.5776 31.7945 13.4923C31.8799 13.4069 32.0292 13.2256 32.2425 12.9483L37.1385 6.61226L42.7385 1.33226C42.9732 1.14026 43.1545 1.02293 43.2825 0.980263C43.4319 0.937597 43.6772 0.916264 44.0185 0.916264H51.9225C52.4559 0.916264 52.7225 1.18293 52.7225 1.71626V6.83627C52.7225 7.00693 52.7012 7.18826 52.6585 7.38026C52.6372 7.55093 52.5305 7.70026 52.3385 7.82826L46.3225 11.9563L42.3865 17.0123V27.4763L46.3865 32.5323L52.3385 36.6283C52.5092 36.7349 52.6159 36.8629 52.6585 37.0123C52.7012 37.1616 52.7225 37.3216 52.7225 37.4923V42.7723C52.7225 43.3056 52.4559 43.5723 51.9225 43.5723H44.0185ZM70.3785 43.5723C69.8879 43.5723 69.4612 43.4336 69.0985 43.1563L63.8825 38.3883L58.6025 31.5083C58.3679 31.2096 58.2185 31.0283 58.1545 30.9643C58.0905 30.8789 58.0585 30.6869 58.0585 30.3883V14.0683C58.0585 13.7696 58.0905 13.5776 58.1545 13.4923C58.2399 13.4069 58.3892 13.2256 58.6025 12.9483L63.4985 6.61226L69.0985 1.33226C69.3332 1.14026 69.5145 1.02293 69.6425 0.980263C69.7919 0.937597 70.0372 0.916264 70.3785 0.916264H78.2825C78.8159 0.916264 79.0825 1.18293 79.0825 1.71626V6.83627C79.0825 7.00693 79.0612 7.18826 79.0185 7.38026C78.9972 7.55093 78.8905 7.70026 78.6985 7.82826L72.6825 11.9563L68.7465 17.0123V27.4763L72.7465 32.5323L78.6985 36.6283C78.8692 36.7349 78.9759 36.8629 79.0185 37.0123C79.0612 37.1616 79.0825 37.3216 79.0825 37.4923V42.7723C79.0825 43.3056 78.8159 43.5723 78.2825 43.5723H70.3785Z" fill="black"/>
<path d="M109.924 23.8359C106.408 23.8359 103.812 22.9219 102.136 21.0938C100.472 19.2656 99.6403 16.4238 99.6403 12.5684C99.6403 5.15039 103.121 1.44141 110.082 1.44141C111.031 1.44141 112.027 1.53516 113.07 1.72266C114.125 1.91016 115.004 2.17383 115.707 2.51367C116.41 2.8418 116.761 3.21094 116.761 3.62109C116.761 3.91406 116.644 4.30078 116.41 4.78125C116.175 5.25 115.9 5.66602 115.584 6.0293C115.267 6.39258 114.986 6.57422 114.74 6.57422C114.67 6.57422 114.5 6.51562 114.23 6.39844C113.644 6.16406 113.029 5.9707 112.384 5.81836C111.74 5.6543 110.943 5.57227 109.994 5.57227C108.154 5.57227 106.789 6.1582 105.898 7.33008C105.019 8.49023 104.58 10.248 104.58 12.6035C104.58 14.959 105.025 16.7344 105.916 17.9297C106.806 19.125 108.142 19.7227 109.924 19.7227C110.826 19.7227 111.64 19.6465 112.367 19.4941V15.5391H109.607C109.279 15.5391 109.039 15.416 108.886 15.1699C108.746 14.9238 108.675 14.5254 108.675 13.9746V12.9727C108.675 12.4336 108.746 12.041 108.886 11.7949C109.039 11.5488 109.279 11.4258 109.607 11.4258H115.953C116.398 11.4258 116.72 11.5254 116.92 11.7246C117.119 11.9121 117.218 12.2227 117.218 12.6562V21.3574C117.218 22.2949 116.433 22.9453 114.863 23.3086C113.293 23.6602 111.646 23.8359 109.924 23.8359ZM122.712 23.625C121.47 23.625 120.849 23.2969 120.849 22.6406V12.7266C120.849 11.2266 120.749 9.97852 120.55 8.98242C120.491 8.66602 120.462 8.44336 120.462 8.31445C120.462 8.08008 120.679 7.89258 121.112 7.75195C121.558 7.59961 122.056 7.48828 122.607 7.41797C123.169 7.34766 123.62 7.3125 123.96 7.3125C124.323 7.3125 124.575 7.44727 124.716 7.7168C124.868 7.98633 125.003 8.37891 125.12 8.89453L125.226 9.35156C125.624 8.625 126.081 8.05078 126.597 7.62891C127.124 7.19531 127.798 6.97852 128.618 6.97852C129.298 6.97852 129.767 7.1543 130.024 7.50586C130.282 7.8457 130.411 8.23242 130.411 8.66602C130.411 8.90039 130.37 9.23438 130.288 9.66797C130.206 10.0898 130.089 10.4648 129.937 10.793C129.784 11.1211 129.614 11.2852 129.427 11.2852C129.298 11.2852 129.105 11.25 128.847 11.1797C128.495 11.0859 128.196 11.0391 127.95 11.0391C127.376 11.0391 126.872 11.2031 126.439 11.5312C126.017 11.8477 125.694 12.2051 125.472 12.6035V22.6406C125.472 23.2969 124.839 23.625 123.573 23.625H122.712ZM135.905 23.8359C134.311 23.8359 133.139 23.4199 132.389 22.5879C131.651 21.7441 131.282 20.6309 131.282 19.248C131.282 18.2051 131.498 17.2676 131.932 16.4355C132.366 15.5918 133.245 14.8828 134.569 14.3086C135.893 13.7344 137.786 13.4473 140.247 13.4473V12.4102C140.247 11.8008 140.053 11.3496 139.666 11.0566C139.28 10.7637 138.664 10.6172 137.821 10.6172C137.118 10.6172 136.514 10.6934 136.01 10.8457C135.506 10.9863 134.961 11.1797 134.375 11.4258C134.071 11.5664 133.883 11.6367 133.813 11.6367C133.602 11.6367 133.368 11.4785 133.11 11.1621C132.864 10.8457 132.647 10.4824 132.459 10.0723C132.272 9.66211 132.178 9.35156 132.178 9.14062C132.178 8.77734 132.436 8.43164 132.952 8.10352C133.479 7.76367 134.2 7.49414 135.114 7.29492C136.028 7.08398 137.041 6.97852 138.155 6.97852C140.498 6.97852 142.204 7.44727 143.27 8.38477C144.336 9.31055 144.87 10.582 144.87 12.1992V18.0527C144.87 19.0254 144.893 19.7812 144.94 20.3203C144.998 20.8594 145.075 21.3926 145.168 21.9199C145.227 22.2363 145.256 22.459 145.256 22.5879C145.256 22.8223 145.034 23.0156 144.588 23.168C144.155 23.3203 143.657 23.4316 143.094 23.502C142.532 23.5723 142.08 23.6074 141.741 23.6074C141.377 23.6074 141.114 23.4551 140.95 23.1504C140.797 22.834 140.674 22.4062 140.58 21.8672C140.569 21.7969 140.557 21.7266 140.545 21.6562C140.534 21.5859 140.516 21.5156 140.493 21.4453C140.375 21.668 140.123 21.9668 139.737 22.3418C139.362 22.7168 138.846 23.0625 138.19 23.3789C137.534 23.6836 136.772 23.8359 135.905 23.8359ZM137.434 20.1621C138.02 20.1621 138.571 19.9805 139.086 19.6172C139.602 19.2422 139.989 18.7676 140.247 18.1934V16.4707C137.329 16.4707 135.87 17.2383 135.87 18.7734C135.87 19.1836 136.004 19.5176 136.274 19.7754C136.555 20.0332 136.942 20.1621 137.434 20.1621ZM150.469 23.625C149.226 23.625 148.605 23.2969 148.605 22.6406V12.7266C148.605 11.2266 148.506 9.97852 148.306 8.98242C148.248 8.66602 148.219 8.44336 148.219 8.31445C148.219 8.08008 148.435 7.89258 148.869 7.75195C149.314 7.59961 149.812 7.48828 150.363 7.41797C150.926 7.34766 151.377 7.3125 151.717 7.3125C152.08 7.3125 152.332 7.44727 152.472 7.7168C152.625 7.98633 152.76 8.37891 152.877 8.89453L152.982 9.35156C153.474 8.69531 154.131 8.13867 154.951 7.68164C155.783 7.21289 156.674 6.97852 157.623 6.97852C159.193 6.97852 160.353 7.38867 161.103 8.20898C161.853 9.0293 162.228 10.3008 162.228 12.0234V22.6406C162.228 23.2969 161.595 23.625 160.33 23.625H159.469C158.226 23.625 157.605 23.2969 157.605 22.6406V12.7266C157.605 12.0938 157.453 11.6133 157.148 11.2852C156.855 10.957 156.375 10.793 155.707 10.793C155.144 10.793 154.646 10.9805 154.213 11.3555C153.779 11.7305 153.451 12.1465 153.228 12.6035V22.6406C153.228 23.2969 152.595 23.625 151.33 23.625H150.469ZM170.868 23.8359C169.732 23.8359 168.718 23.5078 167.827 22.8516C166.948 22.1836 166.257 21.2168 165.753 19.9512C165.261 18.6738 165.015 17.1504 165.015 15.3809C165.015 13.6816 165.273 12.1992 165.788 10.9336C166.304 9.66797 167.054 8.69531 168.038 8.01562C169.034 7.32422 170.224 6.97852 171.607 6.97852C172.849 6.97852 173.909 7.30078 174.788 7.94531V1.01953C174.788 0.339844 175.415 0 176.669 0H177.548C178.193 0 178.661 0.0878906 178.954 0.263672C179.259 0.427734 179.411 0.679688 179.411 1.01953V18.0527C179.411 19.0254 179.435 19.7812 179.482 20.3203C179.54 20.8594 179.616 21.3926 179.71 21.9199C179.769 22.2363 179.798 22.459 179.798 22.5879C179.798 22.8223 179.575 23.0156 179.13 23.168C178.696 23.3203 178.198 23.4316 177.636 23.502C177.085 23.5723 176.64 23.6074 176.3 23.6074C175.937 23.6074 175.679 23.4668 175.527 23.1855C175.386 22.9043 175.257 22.4941 175.14 21.9551L175.034 21.4805C174.659 22.1719 174.103 22.7402 173.364 23.1855C172.626 23.6191 171.794 23.8359 170.868 23.8359ZM172.239 20.0391C173.224 20.0391 174.073 19.4238 174.788 18.1934V11.2148C174.05 10.8164 173.323 10.6172 172.609 10.6172C170.663 10.6172 169.691 12.2051 169.691 15.3809C169.691 18.4863 170.54 20.0391 172.239 20.0391ZM192.683 23.625C191.441 23.625 190.82 23.2969 190.82 22.6406V2.63672C190.82 2.29688 190.967 2.04492 191.26 1.88086C191.564 1.70508 192.039 1.61719 192.683 1.61719H193.791C194.435 1.61719 194.904 1.70508 195.197 1.88086C195.502 2.04492 195.654 2.29688 195.654 2.63672V10.3535H204.092V2.63672C204.092 2.29688 204.244 2.04492 204.549 1.88086C204.853 1.70508 205.328 1.61719 205.973 1.61719H207.062C208.316 1.61719 208.943 1.95703 208.943 2.63672V22.6406C208.943 23.2969 208.316 23.625 207.062 23.625H205.973C204.719 23.625 204.092 23.2969 204.092 22.6406V14.4844H195.654V22.6406C195.654 23.2969 195.033 23.625 193.791 23.625H192.683ZM219.657 23.8359C217.185 23.8359 215.298 23.1094 213.997 21.6562C212.708 20.2031 212.064 18.1113 212.064 15.3809C212.064 12.6621 212.708 10.582 213.997 9.14062C215.298 7.69922 217.185 6.97852 219.657 6.97852C222.13 6.97852 224.005 7.69922 225.282 9.14062C226.572 10.5703 227.216 12.6504 227.216 15.3809C227.216 18.1113 226.572 20.2031 225.282 21.6562C224.005 23.1094 222.13 23.8359 219.657 23.8359ZM219.657 20.1621C220.642 20.1621 221.363 19.7637 221.82 18.9668C222.288 18.1699 222.523 16.9746 222.523 15.3809C222.523 13.7988 222.288 12.6094 221.82 11.8125C221.363 11.0156 220.642 10.6172 219.657 10.6172C217.712 10.6172 216.739 12.2051 216.739 15.3809C216.739 16.9629 216.974 18.1582 217.443 18.9668C217.923 19.7637 218.661 20.1621 219.657 20.1621ZM235.153 23.8359C233.665 23.8359 232.528 23.4199 231.743 22.5879C230.969 21.7441 230.583 20.4668 230.583 18.7559V10.8809H230.09C229.762 10.8809 229.522 10.7578 229.37 10.5117C229.229 10.2656 229.159 9.86719 229.159 9.31641V8.78906C229.159 8.23828 229.229 7.83984 229.37 7.59375C229.522 7.34766 229.762 7.22461 230.09 7.22461H230.583L230.987 4.25391C231.081 3.59766 231.643 3.26953 232.674 3.26953H233.659C234.198 3.26953 234.59 3.35156 234.837 3.51562C235.094 3.67969 235.223 3.92578 235.223 4.25391V7.22461H236.753C237.081 7.22461 237.315 7.34766 237.456 7.59375C237.608 7.83984 237.684 8.23828 237.684 8.78906V9.31641C237.684 9.86719 237.608 10.2656 237.456 10.5117C237.315 10.7578 237.081 10.8809 236.753 10.8809H235.223V18.8086C235.223 19.2891 235.305 19.6348 235.469 19.8457C235.645 20.0566 235.932 20.1621 236.331 20.1621C236.448 20.1621 236.606 20.1445 236.805 20.1094C237.004 20.0625 237.128 20.0391 237.174 20.0391C237.362 20.0391 237.526 20.1973 237.667 20.5137C237.819 20.8184 237.936 21.1582 238.018 21.5332C238.112 21.9082 238.159 22.1602 238.159 22.2891C238.159 23.3203 237.157 23.8359 235.153 23.8359ZM248.012 23.8359C245.269 23.8359 243.225 23.1035 241.877 21.6387C240.529 20.1621 239.855 18.1172 239.855 15.5039C239.855 12.5625 240.529 10.4062 241.877 9.03516C243.225 7.66406 245.082 6.97852 247.449 6.97852C249.019 6.97852 250.303 7.33594 251.299 8.05078C252.307 8.76562 253.039 9.72656 253.496 10.9336C253.965 12.1406 254.199 13.5059 254.199 15.0293C254.199 15.2051 254.094 15.4395 253.883 15.7324C253.684 16.0254 253.455 16.2891 253.197 16.5234C252.939 16.7578 252.74 16.875 252.6 16.875H244.637C244.742 18.0703 245.094 18.9199 245.691 19.4238C246.301 19.916 247.144 20.1621 248.223 20.1621C248.809 20.1621 249.336 20.0977 249.805 19.9688C250.285 19.8281 250.795 19.6465 251.334 19.4238C251.662 19.2715 251.885 19.1953 252.002 19.1953C252.213 19.1953 252.441 19.3477 252.687 19.6523C252.945 19.9453 253.162 20.2852 253.338 20.6719C253.525 21.0586 253.619 21.3574 253.619 21.5684C253.619 22.0488 253.291 22.459 252.635 22.7988C251.99 23.1387 251.223 23.3965 250.332 23.5723C249.453 23.748 248.68 23.8359 248.012 23.8359ZM249.699 13.7988C249.699 12.8379 249.512 12.0703 249.137 11.4961C248.762 10.9102 248.199 10.6172 247.449 10.6172C245.902 10.6172 244.965 11.6777 244.637 13.7988H249.699ZM261.591 23.8359C260.103 23.8359 258.966 23.4199 258.181 22.5879C257.408 21.7441 257.021 20.4668 257.021 18.7559V1.01953C257.021 0.339844 257.648 0 258.902 0H259.781C260.425 0 260.894 0.0878906 261.187 0.263672C261.492 0.427734 261.644 0.679688 261.644 1.01953V18.8086C261.644 19.2891 261.732 19.6348 261.908 19.8457C262.083 20.0566 262.376 20.1621 262.786 20.1621C262.892 20.1621 263.05 20.1387 263.261 20.0918C263.32 20.0801 263.378 20.0684 263.437 20.0566C263.495 20.0449 263.56 20.0391 263.63 20.0391C263.806 20.0391 263.964 20.1973 264.105 20.5137C264.257 20.8184 264.374 21.1641 264.456 21.5508C264.538 21.9258 264.579 22.1719 264.579 22.2891C264.579 23.3203 263.583 23.8359 261.591 23.8359Z" fill="black"/>
<path d="M103.26 42.5723C103.096 42.5723 102.976 42.5342 102.899 42.458C102.823 42.3818 102.785 42.2646 102.785 42.1064V31.9463C102.785 31.7119 102.996 31.5947 103.418 31.5947H103.541C103.957 31.5947 104.165 31.7119 104.165 31.9463V41.3857H108.463C108.574 41.3857 108.653 41.4238 108.7 41.5C108.747 41.5703 108.771 41.6875 108.771 41.8516V42.1064C108.771 42.2646 108.747 42.3818 108.7 42.458C108.653 42.5342 108.574 42.5723 108.463 42.5723H103.26ZM112.37 42.6602C111.573 42.6602 110.949 42.4375 110.498 41.9922C110.047 41.541 109.821 40.9199 109.821 40.1289V34.7148C109.821 34.4863 110.032 34.3721 110.454 34.3721H110.515C110.931 34.3721 111.139 34.4863 111.139 34.7148V40.0059C111.139 40.4863 111.277 40.8613 111.552 41.1309C111.834 41.3945 112.226 41.5264 112.73 41.5264C113.082 41.5264 113.433 41.4297 113.785 41.2363C114.136 41.0371 114.441 40.7676 114.699 40.4277V34.7148C114.699 34.4863 114.907 34.3721 115.323 34.3721H115.385C115.806 34.3721 116.017 34.4863 116.017 34.7148V40.2607C116.017 40.9404 116.047 41.4326 116.105 41.7373C116.164 42.0361 116.193 42.2002 116.193 42.2295C116.193 42.3584 116.096 42.4521 115.903 42.5107C115.71 42.5635 115.528 42.5898 115.358 42.5898C115.212 42.5898 115.103 42.5078 115.033 42.3438C114.963 42.1738 114.91 42.001 114.875 41.8252C114.845 41.6494 114.825 41.5381 114.813 41.4912C114.485 41.8604 114.104 42.1475 113.671 42.3525C113.243 42.5576 112.809 42.6602 112.37 42.6602ZM118.158 42.5986C117.917 42.5986 117.745 42.5781 117.639 42.5371C117.539 42.4961 117.49 42.4287 117.49 42.335C117.49 42.2646 117.531 42.1709 117.613 42.0537L120.144 38.3887L117.797 34.9082C117.721 34.791 117.683 34.7002 117.683 34.6357C117.683 34.542 117.736 34.4746 117.841 34.4336C117.947 34.3926 118.128 34.3721 118.386 34.3721H118.536C118.711 34.3721 118.852 34.3896 118.957 34.4248C119.063 34.4541 119.148 34.5156 119.212 34.6094L120.698 36.833C120.786 36.9736 120.891 37.1582 121.014 37.3867C121.038 37.3457 121.079 37.2754 121.137 37.1758C121.196 37.0762 121.266 36.9619 121.348 36.833L122.842 34.583C122.936 34.4424 123.17 34.3721 123.545 34.3721H123.607C123.847 34.3721 124.017 34.3926 124.117 34.4336C124.216 34.4746 124.266 34.542 124.266 34.6357C124.266 34.7061 124.225 34.7969 124.143 34.9082L121.788 38.3447L124.31 42.0537C124.398 42.1826 124.442 42.2764 124.442 42.335C124.442 42.4229 124.386 42.4902 124.275 42.5371C124.163 42.5781 123.979 42.5986 123.721 42.5986H123.58C123.399 42.5986 123.255 42.584 123.15 42.5547C123.05 42.5195 122.971 42.4551 122.913 42.3613L121.251 39.8828C121.158 39.7422 121.084 39.625 121.032 39.5312C120.979 39.4316 120.944 39.3672 120.926 39.3379C120.914 39.3613 120.879 39.4229 120.821 39.5225C120.768 39.6162 120.692 39.7363 120.592 39.8828L118.913 42.3789C118.814 42.5254 118.58 42.5986 118.21 42.5986H118.158ZM128.287 42.6602C127.49 42.6602 126.866 42.4375 126.415 41.9922C125.964 41.541 125.738 40.9199 125.738 40.1289V34.7148C125.738 34.4863 125.949 34.3721 126.371 34.3721H126.433C126.849 34.3721 127.057 34.4863 127.057 34.7148V40.0059C127.057 40.4863 127.194 40.8613 127.47 41.1309C127.751 41.3945 128.144 41.5264 128.648 41.5264C128.999 41.5264 129.351 41.4297 129.702 41.2363C130.054 41.0371 130.358 40.7676 130.616 40.4277V34.7148C130.616 34.4863 130.824 34.3721 131.24 34.3721H131.302C131.724 34.3721 131.935 34.4863 131.935 34.7148V40.2607C131.935 40.9404 131.964 41.4326 132.023 41.7373C132.081 42.0361 132.11 42.2002 132.11 42.2295C132.11 42.3584 132.014 42.4521 131.82 42.5107C131.627 42.5635 131.445 42.5898 131.275 42.5898C131.129 42.5898 131.021 42.5078 130.95 42.3438C130.88 42.1738 130.827 42.001 130.792 41.8252C130.763 41.6494 130.742 41.5381 130.731 41.4912C130.402 41.8604 130.022 42.1475 129.588 42.3525C129.16 42.5576 128.727 42.6602 128.287 42.6602ZM135.13 42.5986C134.907 42.5986 134.746 42.5723 134.646 42.5195C134.547 42.4609 134.497 42.373 134.497 42.2559V36.7715C134.497 36.0918 134.465 35.6025 134.4 35.3037C134.336 34.999 134.303 34.832 134.303 34.8027C134.303 34.6738 134.4 34.583 134.594 34.5303C134.793 34.4717 134.98 34.4424 135.156 34.4424C135.297 34.4424 135.402 34.5186 135.472 34.6709C135.543 34.8174 135.604 35.0254 135.657 35.2949L135.701 35.4795C136.258 34.7002 136.861 34.3105 137.512 34.3105C137.81 34.3105 138.036 34.3662 138.188 34.4775C138.341 34.583 138.417 34.7266 138.417 34.9082C138.417 35.084 138.385 35.2715 138.32 35.4707C138.262 35.6641 138.191 35.7607 138.109 35.7607C138.068 35.7607 137.995 35.7432 137.889 35.708C137.796 35.667 137.702 35.6377 137.608 35.6201C137.514 35.5967 137.394 35.585 137.248 35.585C137.008 35.585 136.779 35.6553 136.562 35.7959C136.351 35.9365 136.173 36.0918 136.026 36.2617C135.88 36.4316 135.806 36.5254 135.806 36.543V42.2559C135.806 42.373 135.757 42.4609 135.657 42.5195C135.557 42.5723 135.402 42.5986 135.191 42.5986H135.13ZM140.812 45.8242C140.472 45.8242 140.302 45.7393 140.302 45.5693C140.302 45.5283 140.326 45.4434 140.373 45.3145L141.682 42.1328L138.949 34.8379C138.943 34.8145 138.934 34.7822 138.922 34.7412C138.911 34.6943 138.905 34.6592 138.905 34.6357C138.905 34.5537 138.96 34.4893 139.072 34.4424C139.183 34.3955 139.353 34.3721 139.582 34.3721H139.705C140.056 34.3721 140.264 34.4541 140.329 34.6182L141.919 38.8545C142.06 39.2236 142.227 39.748 142.42 40.4277H142.447L142.631 39.8477C142.661 39.7598 142.71 39.6104 142.781 39.3994C142.851 39.1826 142.915 39.001 142.974 38.8545L144.53 34.6182C144.582 34.4541 144.796 34.3721 145.171 34.3721H145.224C145.634 34.3721 145.839 34.46 145.839 34.6357C145.839 34.6768 145.825 34.7471 145.795 34.8467L141.788 45.499C141.694 45.7158 141.448 45.8242 141.049 45.8242H140.812ZM158.768 41.4648C158.833 41.4648 158.891 41.5117 158.944 41.6055C158.997 41.6992 159.035 41.8076 159.058 41.9307C159.088 42.0479 159.102 42.1357 159.102 42.1943C159.102 42.5049 158.722 42.6602 157.96 42.6602C157.257 42.6602 156.723 42.4375 156.36 41.9922C156.05 42.1797 155.678 42.3379 155.244 42.4668C154.816 42.5957 154.342 42.6602 153.82 42.6602C153.252 42.6602 152.701 42.5488 152.168 42.3262C151.64 42.1035 151.201 41.749 150.849 41.2627C150.504 40.7764 150.331 40.1553 150.331 39.3994C150.331 38.8779 150.425 38.415 150.612 38.0107C150.805 37.6064 151.052 37.2812 151.35 37.0352C151.655 36.7832 151.974 36.6133 152.308 36.5254V36.4551C151.84 36.2793 151.453 35.9922 151.148 35.5938C150.844 35.1895 150.691 34.7119 150.691 34.1611C150.691 33.5928 150.826 33.1123 151.096 32.7197C151.365 32.3213 151.737 32.0254 152.212 31.832C152.686 31.6328 153.231 31.5332 153.847 31.5332C154.186 31.5332 154.491 31.5713 154.761 31.6475C155.036 31.7236 155.174 31.8555 155.174 32.043C155.174 32.084 155.159 32.1689 155.13 32.2979C155.106 32.4209 155.068 32.5381 155.015 32.6494C154.969 32.7549 154.907 32.8076 154.831 32.8076C154.819 32.8076 154.755 32.7959 154.638 32.7725C154.35 32.6963 154.098 32.6582 153.882 32.6582C153.161 32.6582 152.669 32.8281 152.405 33.168C152.141 33.5078 152.01 33.8887 152.01 34.3105C152.01 34.5977 152.083 34.8877 152.229 35.1807C152.376 35.4678 152.604 35.7109 152.915 35.9102C153.231 36.1035 153.624 36.2002 154.093 36.2002H155.938L156.132 34.5479C156.149 34.3193 156.313 34.2051 156.624 34.2051H156.791C156.943 34.2051 157.057 34.2373 157.134 34.3018C157.216 34.3604 157.257 34.4424 157.257 34.5479V36.2002H158.566C158.678 36.2002 158.757 36.2383 158.804 36.3145C158.85 36.3848 158.874 36.502 158.874 36.666V36.8594C158.874 37.0176 158.85 37.1348 158.804 37.2109C158.757 37.2871 158.678 37.3252 158.566 37.3252H157.257V40.3838C157.257 40.8115 157.333 41.1104 157.485 41.2803C157.638 41.4502 157.843 41.5352 158.1 41.5352C158.294 41.5352 158.443 41.5234 158.549 41.5C158.66 41.4766 158.733 41.4648 158.768 41.4648ZM151.693 39.3818C151.693 39.9092 151.807 40.334 152.036 40.6562C152.27 40.9785 152.557 41.207 152.897 41.3418C153.237 41.4707 153.586 41.5352 153.943 41.5352C154.289 41.5352 154.635 41.4824 154.98 41.377C155.332 41.2656 155.66 41.1309 155.965 40.9727C155.947 40.8203 155.938 40.665 155.938 40.5068V37.3252H154.031C153.275 37.3252 152.695 37.4805 152.291 37.791C151.892 38.0957 151.693 38.626 151.693 39.3818ZM168.63 42.6602C166.919 42.6602 165.653 42.209 164.833 41.3066C164.013 40.4043 163.603 39.001 163.603 37.0967C163.603 33.3877 165.287 31.5332 168.656 31.5332C169.149 31.5332 169.626 31.5859 170.089 31.6914C170.552 31.791 170.927 31.917 171.214 32.0693C171.501 32.2217 171.645 32.3682 171.645 32.5088C171.645 32.5967 171.612 32.7139 171.548 32.8604C171.489 33.0068 171.419 33.1357 171.337 33.2471C171.255 33.3584 171.182 33.4141 171.117 33.4141C171.088 33.4141 171.006 33.376 170.871 33.2998C170.567 33.1357 170.247 32.998 169.913 32.8867C169.579 32.7754 169.172 32.7197 168.692 32.7197C167.432 32.7197 166.503 33.0713 165.905 33.7744C165.314 34.4717 165.018 35.585 165.018 37.1143C165.018 38.6084 165.311 39.71 165.897 40.4189C166.488 41.1221 167.4 41.4736 168.63 41.4736C169.146 41.4736 169.588 41.4121 169.957 41.2891C170.326 41.166 170.681 41.0137 171.021 40.832C171.185 40.7441 171.284 40.7002 171.32 40.7002C171.384 40.7002 171.457 40.7559 171.539 40.8672C171.627 40.9785 171.703 41.1045 171.768 41.2451C171.832 41.3799 171.864 41.4766 171.864 41.5352C171.864 41.6816 171.715 41.8457 171.416 42.0273C171.123 42.2031 170.728 42.3525 170.23 42.4756C169.737 42.5986 169.204 42.6602 168.63 42.6602ZM176.694 42.6602C175.516 42.6602 174.617 42.3086 173.996 41.6055C173.381 40.8965 173.073 39.8682 173.073 38.5205C173.073 37.1729 173.387 36.1357 174.014 35.4092C174.64 34.6768 175.534 34.3105 176.694 34.3105C177.843 34.3105 178.722 34.6738 179.331 35.4004C179.94 36.1211 180.245 37.1611 180.245 38.5205C180.245 39.874 179.943 40.9023 179.34 41.6055C178.742 42.3086 177.86 42.6602 176.694 42.6602ZM176.65 41.5352C177.412 41.5352 177.974 41.2891 178.338 40.7969C178.701 40.2988 178.883 39.5312 178.883 38.4941C178.883 37.4512 178.701 36.6807 178.338 36.1826C177.974 35.6846 177.412 35.4355 176.65 35.4355C175.894 35.4355 175.338 35.6846 174.98 36.1826C174.623 36.6748 174.444 37.4453 174.444 38.4941C174.444 39.5371 174.62 40.3047 174.972 40.7969C175.329 41.2891 175.889 41.5352 176.65 41.5352ZM190.55 34.3105C191.201 34.3105 191.772 34.4951 192.264 34.8643C192.756 35.2334 193.002 35.8896 193.002 36.833V42.2559C193.002 42.373 192.953 42.4609 192.853 42.5195C192.753 42.5723 192.595 42.5986 192.378 42.5986H192.326C192.103 42.5986 191.942 42.5723 191.842 42.5195C191.743 42.4609 191.693 42.373 191.693 42.2559V36.9648C191.693 36.4902 191.564 36.1182 191.306 35.8486C191.054 35.5791 190.682 35.4443 190.19 35.4443C189.78 35.4443 189.408 35.5645 189.074 35.8047C188.746 36.0391 188.479 36.2852 188.274 36.543C188.286 36.6836 188.292 36.7891 188.292 36.8594V42.2559C188.292 42.4844 188.081 42.5986 187.659 42.5986H187.597C187.181 42.5986 186.973 42.4844 186.973 42.2559V36.9648C186.973 36.4902 186.844 36.1182 186.586 35.8486C186.335 35.5791 185.962 35.4443 185.47 35.4443C185.13 35.4443 184.82 35.5264 184.539 35.6904C184.257 35.8486 184.023 36.0215 183.835 36.209C183.654 36.3965 183.563 36.502 183.563 36.5254V42.2559C183.563 42.373 183.513 42.4609 183.414 42.5195C183.32 42.5723 183.165 42.5986 182.948 42.5986H182.877C182.661 42.5986 182.502 42.5723 182.403 42.5195C182.309 42.4609 182.262 42.373 182.262 42.2559V36.7715C182.262 36.0918 182.23 35.6025 182.166 35.3037C182.101 34.999 182.069 34.832 182.069 34.8027C182.069 34.6738 182.166 34.583 182.359 34.5303C182.558 34.4717 182.743 34.4424 182.913 34.4424C183.059 34.4424 183.168 34.5215 183.238 34.6797C183.308 34.8379 183.358 34.999 183.387 35.1631C183.422 35.3271 183.446 35.4326 183.458 35.4795C183.745 35.1455 184.096 34.8672 184.512 34.6445C184.928 34.4219 185.368 34.3105 185.831 34.3105C186.305 34.3105 186.748 34.4072 187.158 34.6006C187.568 34.7881 187.87 35.1221 188.063 35.6025C188.385 35.2217 188.763 34.9111 189.197 34.6709C189.63 34.4307 190.082 34.3105 190.55 34.3105ZM196.312 42.5986C196.095 42.5986 195.937 42.5723 195.837 42.5195C195.738 42.4609 195.688 42.373 195.688 42.2559V35.5234H195.064C194.853 35.5234 194.747 35.3682 194.747 35.0576V34.8643C194.747 34.5537 194.853 34.3984 195.064 34.3984H195.688V32.9131C195.688 32.0928 195.89 31.5303 196.294 31.2256C196.704 30.915 197.173 30.7598 197.7 30.7598C198.462 30.7598 198.843 30.918 198.843 31.2344C198.843 31.2871 198.828 31.375 198.799 31.498C198.776 31.6152 198.738 31.7207 198.685 31.8145C198.638 31.9082 198.582 31.9551 198.518 31.9551C198.483 31.9551 198.409 31.9434 198.298 31.9199C198.187 31.8965 198.034 31.8848 197.841 31.8848C197.665 31.8848 197.516 31.9111 197.393 31.9639C197.276 32.0166 197.179 32.1279 197.103 32.2979C197.032 32.4678 196.997 32.7139 196.997 33.0361V34.3984H198.36C198.471 34.3984 198.55 34.4365 198.597 34.5127C198.65 34.583 198.676 34.7002 198.676 34.8643V35.0576C198.676 35.2217 198.65 35.3418 198.597 35.418C198.55 35.4883 198.471 35.5234 198.36 35.5234H196.997V42.2559C196.997 42.373 196.947 42.4609 196.848 42.5195C196.748 42.5723 196.593 42.5986 196.382 42.5986H196.312ZM203.383 42.6602C202.205 42.6602 201.306 42.3086 200.684 41.6055C200.069 40.8965 199.762 39.8682 199.762 38.5205C199.762 37.1729 200.075 36.1357 200.702 35.4092C201.329 34.6768 202.223 34.3105 203.383 34.3105C204.531 34.3105 205.41 34.6738 206.019 35.4004C206.629 36.1211 206.934 37.1611 206.934 38.5205C206.934 39.874 206.632 40.9023 206.028 41.6055C205.431 42.3086 204.549 42.6602 203.383 42.6602ZM203.339 41.5352C204.1 41.5352 204.663 41.2891 205.026 40.7969C205.39 40.2988 205.571 39.5312 205.571 38.4941C205.571 37.4512 205.39 36.6807 205.026 36.1826C204.663 35.6846 204.1 35.4355 203.339 35.4355C202.583 35.4355 202.026 35.6846 201.669 36.1826C201.311 36.6748 201.133 37.4453 201.133 38.4941C201.133 39.5371 201.309 40.3047 201.66 40.7969C202.017 41.2891 202.577 41.5352 203.339 41.5352ZM209.654 42.5986C209.431 42.5986 209.27 42.5723 209.17 42.5195C209.071 42.4609 209.021 42.373 209.021 42.2559V36.7715C209.021 36.0918 208.989 35.6025 208.924 35.3037C208.86 34.999 208.828 34.832 208.828 34.8027C208.828 34.6738 208.924 34.583 209.118 34.5303C209.317 34.4717 209.504 34.4424 209.68 34.4424C209.821 34.4424 209.926 34.5186 209.997 34.6709C210.067 34.8174 210.128 35.0254 210.181 35.2949L210.225 35.4795C210.782 34.7002 211.385 34.3105 212.036 34.3105C212.335 34.3105 212.56 34.3662 212.712 34.4775C212.865 34.583 212.941 34.7266 212.941 34.9082C212.941 35.084 212.909 35.2715 212.844 35.4707C212.786 35.6641 212.715 35.7607 212.633 35.7607C212.592 35.7607 212.519 35.7432 212.414 35.708C212.32 35.667 212.226 35.6377 212.132 35.6201C212.039 35.5967 211.919 35.585 211.772 35.585C211.532 35.585 211.303 35.6553 211.087 35.7959C210.876 35.9365 210.697 36.0918 210.55 36.2617C210.404 36.4316 210.331 36.5254 210.331 36.543V42.2559C210.331 42.373 210.281 42.4609 210.181 42.5195C210.082 42.5723 209.926 42.5986 209.715 42.5986H209.654ZM216.839 42.6602C216.318 42.6602 215.852 42.502 215.442 42.1855C215.032 41.8691 214.826 41.3096 214.826 40.5068V35.5234H214.044C213.933 35.5234 213.851 35.4883 213.798 35.418C213.751 35.3418 213.728 35.2217 213.728 35.0576V34.8643C213.728 34.7002 213.751 34.583 213.798 34.5127C213.851 34.4365 213.933 34.3984 214.044 34.3984H214.826L215.011 32.7637C215.023 32.5352 215.19 32.4209 215.512 32.4209H215.661C215.825 32.4209 215.946 32.4502 216.022 32.5088C216.098 32.5615 216.136 32.6465 216.136 32.7637V34.3984H217.446C217.557 34.3984 217.636 34.4365 217.683 34.5127C217.736 34.583 217.762 34.7002 217.762 34.8643V35.0576C217.762 35.2217 217.736 35.3418 217.683 35.418C217.636 35.4883 217.557 35.5234 217.446 35.5234H216.136V40.3838C216.136 40.8115 216.209 41.1104 216.356 41.2803C216.508 41.4502 216.713 41.5352 216.971 41.5352C217.17 41.5352 217.323 41.5234 217.428 41.5C217.539 41.4766 217.613 41.4648 217.648 41.4648C217.741 41.4648 217.818 41.5586 217.876 41.7461C217.941 41.9336 217.973 42.083 217.973 42.1943C217.973 42.5049 217.595 42.6602 216.839 42.6602Z" fill="black"/>
</svg>
